<svg width="64" height="64" viewBox="0 0 240 240" xmlns="http://www.w3.org/2000/svg">
  <defs>
    <linearGradient id="bg" x1="0" y1="0" x2="1" y2="1">
      <stop offset="0" stop-color="#fff0bf"/>
      <stop offset="1" stop-color="#ffd84d"/>
    </linearGradient>
  </defs>
  <rect x="20" y="20" width="200" height="200" rx="52" fill="url(#bg)"/>
  <!-- 솜털 -->
  <path d="M112 72 Q 106 58 112 52" stroke="#f0a81a" stroke-width="6" stroke-linecap="round" fill="none"/>
  <path d="M120 72 Q 120 54 120 50" stroke="#f0a81a" stroke-width="6" stroke-linecap="round" fill="none"/>
  <path d="M128 72 Q 134 58 128 52" stroke="#f0a81a" stroke-width="6" stroke-linecap="round" fill="none"/>
  <!-- 머리(단순화) -->
  <circle cx="120" cy="128" r="52" fill="#ffce3f"/>
  <ellipse cx="100" cy="108" rx="14" ry="8" fill="#fff" opacity="0.4"/>
  <ellipse cx="92" cy="138" rx="9" ry="5" fill="#ff9d7e" opacity="0.55"/>
  <ellipse cx="148" cy="138" rx="9" ry="5" fill="#ff9d7e" opacity="0.55"/>
  <circle cx="105" cy="122" r="6.5" fill="#3a3242"/><circle cx="107" cy="119.5" r="2" fill="#fff"/>
  <circle cx="135" cy="122" r="6.5" fill="#3a3242"/><circle cx="137" cy="119.5" r="2" fill="#fff"/>
  <path d="M111 136 L129 136 L120 129 Z" fill="#ffb02e"/>
  <path d="M111 136 L129 136 L120 145 Z" fill="#f0951e"/>
  <!-- 코너 하트핀 -->
  <path d="M182 150 C 173 150 167 157 167 165 C 167 176 182 187 182 187 C 182 187 197 176 197 165 C 197 157 191 150 182 150 Z" fill="#f9624a"/>
  <path d="M182 169 C 179 165 174 166 174 170 C 174 174 179 176 182 178 C 185 176 190 174 190 170 C 190 166 185 165 182 169 Z" fill="#fff"/>
</svg>
